<?xml version="1.0" standalone="no"?>
<!DOCTYPE svg PUBLIC "-//W3C//DTD SVG 20010904//EN"
 "http://www.w3.org/TR/2001/REC-SVG-20010904/DTD/svg10.dtd">
<svg version="1.0" xmlns="http://www.w3.org/2000/svg"
 width="1080.000000pt" height="1080.000000pt" viewBox="0 0 1080.000000 1080.000000"
 preserveAspectRatio="xMidYMid meet">
<metadata>
Created by potrace 1.16, written by Peter Selinger 2001-2019
</metadata>
<g transform="translate(0.000000,1080.000000) scale(0.100000,-0.100000)"
fill="#000000" stroke="none">
<path d="M0 5400 l0 -5400 5400 0 5400 0 0 5400 0 5400 -5400 0 -5400 0 0
-5400z m2367 1630 l163 0 0 -130 0 -130 -230 0 -230 0 0 -230 0 -230 -130 0
-130 0 0 367 0 366 197 -6 c108 -4 270 -7 360 -7z m6623 -355 l0 -365 -130 0
-130 0 0 230 0 230 -230 0 -230 0 0 130 0 130 233 3 c127 1 289 3 360 5 l127
2 0 -365z m-5572 -157 l2 -208 65 0 65 0 1 -147 0 -148 21 55 c27 71 79 149
128 194 48 44 156 98 230 117 85 22 349 19 425 -5 164 -50 262 -141 314 -292
l20 -59 1 178 0 177 480 0 480 0 0 -162 0 -163 41 83 c91 181 251 262 519 262
137 0 217 -17 318 -67 143 -70 229 -189 256 -353 13 -79 14 -81 15 -34 1 68
35 198 65 249 79 134 253 205 504 205 298 0 502 -136 551 -368 8 -36 11 -300
11 -842 l0 -790 -235 0 -235 0 0 108 -1 107 -29 -61 c-56 -114 -150 -176 -270
-175 -212 0 -307 79 -366 301 -12 47 -23 76 -23 65 -2 -36 -59 -143 -103 -191
-55 -61 -143 -117 -221 -143 -175 -59 -452 -37 -593 45 -59 35 -140 124 -169
186 l-25 53 0 -147 0 -148 -495 0 -495 0 0 145 0 145 245 656 c135 360 245
657 245 660 0 2 -106 4 -235 4 l-234 0 4 -50 c3 -27 7 -73 10 -102 2 -29 2
-157 -2 -285 l-6 -233 -344 0 -343 0 0 -212 c0 -209 10 -318 33 -349 30 -40
96 -51 136 -23 42 30 51 71 51 244 l0 160 241 0 241 0 -7 -127 c-9 -164 -20
-240 -50 -330 -78 -232 -237 -328 -541 -326 -265 2 -413 78 -498 256 -69 144
-69 141 -73 755 l-4 552 -60 0 -59 0 0 -589 c0 -667 -6 -621 81 -621 l49 0 0
-159 c0 -181 10 -162 -100 -181 -92 -17 -266 -15 -318 3 -71 25 -110 58 -140
117 l-27 55 -3 687 -3 687 -67 3 -67 3 0 180 0 180 68 3 67 3 0 210 0 209 228
-2 227 -3 3 -207z m-1238 -2308 l0 -230 230 0 230 0 0 -135 0 -135 -360 0
-360 0 0 365 0 365 130 0 130 0 0 -230z m6810 -135 l0 -365 -360 0 -360 0 0
135 0 135 230 0 230 0 0 230 0 230 130 0 130 0 0 -365z"/>
<path d="M4067 6029 c-44 -34 -57 -101 -57 -286 l0 -163 110 0 110 0 0 166 c0
180 -10 240 -46 279 -29 31 -81 33 -117 4z"/>
<path d="M7293 6016 c-26 -23 -28 -30 -33 -123 l-5 -98 -233 0 -232 0 0 -102
0 -103 -240 0 -240 0 0 153 c-1 242 -19 287 -112 287 -40 0 -53 -5 -73 -26
-14 -15 -28 -43 -32 -63 -5 -20 -8 -274 -8 -566 0 -485 1 -533 17 -562 24 -42
55 -63 96 -63 48 0 71 16 93 63 16 37 19 67 19 240 l0 198 244 -3 244 -3 11
37 c19 61 89 155 148 198 59 42 248 120 402 166 l91 28 0 138 c0 142 -4 163
-43 206 -28 30 -77 29 -114 -2z"/>
<path d="M5416 5392 c-121 -339 -221 -623 -224 -629 -3 -10 46 -13 223 -13
l227 0 -5 23 c-25 96 -28 197 -24 649 3 328 8 497 16 527 36 133 -16 -2 -213
-557z"/>
<path d="M7415 5433 c-65 -33 -107 -69 -133 -112 -27 -45 -27 -49 -30 -255 -3
-177 -1 -216 13 -253 20 -51 61 -78 105 -68 74 16 82 59 78 412 l-3 291 -30
-15z"/>
</g>
</svg>
