<?xml version="1.0" standalone="no"?>
<!DOCTYPE svg PUBLIC "-//W3C//DTD SVG 20010904//EN"
 "http://www.w3.org/TR/2001/REC-SVG-20010904/DTD/svg10.dtd">
<svg version="1.0" xmlns="http://www.w3.org/2000/svg"
 width="1080.000000pt" height="1080.000000pt" viewBox="0 0 1080.000000 1080.000000"
 preserveAspectRatio="xMidYMid meet">
<metadata>
Created by potrace 1.16, written by Peter Selinger 2001-2019
</metadata>
<g transform="translate(0.000000,1080.000000) scale(0.100000,-0.100000)"
fill="#000000" stroke="none">
<path d="M1818 7035 c-5 -5 -8 -170 -8 -367 l0 -358 130 0 130 0 0 230 0 230
230 0 230 0 0 130 0 130 -167 0 c-93 0 -251 3 -353 6 -102 4 -188 3 -192 -1z"/>
<path d="M8503 7033 l-233 -3 0 -130 0 -130 230 0 230 0 0 -230 0 -230 130 0
130 0 -2 363 -3 362 -125 0 c-69 1 -230 -1 -357 -2z"/>
<path d="M2958 6513 l-3 -208 -67 -3 -68 -3 0 -174 0 -174 68 -3 67 -3 5 -685
c6 -743 5 -725 63 -795 50 -62 96 -79 225 -83 99 -4 247 9 288 25 11 4 14 37
14 164 l0 159 -49 0 c-87 0 -81 -47 -81 626 l0 594 59 0 60 0 3 -557 4 -558
27 -90 c16 -49 40 -111 54 -137 57 -105 163 -182 295 -213 86 -20 306 -20 395
1 88 20 193 76 239 126 91 102 144 285 144 506 l0 132 -235 0 -235 0 0 -160
c0 -121 -4 -169 -16 -198 -23 -59 -83 -79 -144 -47 -49 25 -55 62 -55 340 l0
250 343 3 343 2 -3 330 -3 330 233 0 233 0 -7 -22 c-3 -13 -114 -310 -245
-661 l-239 -638 0 -144 0 -145 495 0 495 0 0 146 0 146 31 -58 c89 -171 257
-254 513 -254 72 0 147 6 185 15 183 44 326 168 372 324 l13 44 18 -73 c37
-151 98 -240 191 -281 73 -32 218 -39 285 -13 63 24 144 107 171 176 l20 53 0
-112 1 -113 235 0 235 0 0 793 c0 858 1 847 -55 957 -49 97 -156 179 -295 226
-45 16 -85 19 -220 19 -145 0 -174 -3 -240 -23 -98 -31 -163 -67 -205 -114
-69 -76 -113 -199 -116 -328 -1 -36 -4 -49 -6 -30 -20 206 -78 313 -217 406
-92 61 -183 86 -326 92 -307 11 -488 -82 -577 -298 l-23 -55 0 168 0 167 -480
0 -480 0 -1 -177 c-1 -160 -2 -174 -14 -138 -51 162 -159 264 -328 312 -85 23
-278 28 -376 9 -207 -39 -349 -158 -407 -341 -12 -36 -13 -27 -13 108 l-1 147
-65 0 -65 0 0 210 0 210 -230 0 -230 0 -2 -207z m1219 -478 c41 -29 53 -94 53
-282 l0 -173 -110 0 -110 0 0 168 c0 92 5 185 11 206 22 80 100 121 156 81z
m1456 -71 c-13 -57 -17 -149 -20 -541 -4 -443 -2 -519 23 -640 l7 -33 -227 0
c-187 0 -227 2 -224 14 6 26 453 1274 455 1272 2 -1 -5 -34 -14 -72z m634 56
c1 0 10 -15 20 -32 14 -27 18 -65 21 -210 l4 -178 239 0 239 0 0 100 0 100
230 0 230 0 0 58 c1 122 34 182 100 182 80 0 113 -83 108 -266 l-3 -97 -180
-61 c-215 -74 -306 -119 -368 -181 -41 -41 -107 -154 -107 -184 0 -8 -73 -11
-245 -11 l-245 0 -1 -192 c0 -209 -7 -249 -50 -281 -34 -24 -94 -25 -121 -1
-54 50 -53 36 -53 609 0 292 3 546 8 565 16 72 73 107 142 88 16 -4 31 -8 32
-8z m1173 -1202 c-11 -40 -51 -78 -82 -78 -34 0 -75 28 -92 64 -13 28 -16 70
-16 243 0 204 1 210 25 260 27 53 62 86 130 121 l40 20 3 -296 c2 -191 -1
-310 -8 -334z"/>
<path d="M1927 4433 c-4 -3 -7 -168 -7 -366 l0 -360 197 6 c108 4 270 7 360 7
l163 0 0 125 0 125 -227 2 -228 3 -3 233 -2 232 -124 0 c-67 0 -126 -3 -129
-7z"/>
<path d="M8730 4205 l0 -235 -230 0 -230 0 0 -125 0 -125 163 0 c90 0 252 -3
360 -7 l197 -6 0 366 0 367 -130 0 -130 0 0 -235z"/>
</g>
</svg>
